<svg width="104" height="103" viewBox="0 0 104 103" fill="none" xmlns="http://www.w3.org/2000/svg">
<g clip-path="url(#clip0_359_537)">
<rect x="0.0146484" width="103.986" height="102.024" rx="27.4679" fill="white"/>
<rect x="51.3203" y="52.4268" width="58.5269" height="92.0249" rx="12.2189" transform="rotate(-9.7236 51.3203 52.4268)" fill="#00F0FF" fill-opacity="0.41"/>
<rect x="-12.3755" y="36.5781" width="54.4265" height="92.7385" rx="11.1831" transform="rotate(-10.259 -12.3755 36.5781)" fill="#FF5BE6" fill-opacity="0.85"/>
<path d="M90.9809 68.0022C90.9866 68.2537 90.9866 68.5069 90.9801 68.7612L90.9651 69.1613C90.5465 77.3976 83.7347 83.8712 75.4878 83.8705L75.0874 83.8653L66.3549 83.6433L65.9547 83.6283C63.236 83.4902 60.7099 82.6545 58.5446 81.3016L64.3665 79.5446C65.0421 79.685 65.7386 79.7719 66.4528 79.7901L75.1853 80.012C81.6164 80.1754 86.9622 75.0943 87.1259 68.6632C87.1324 68.4084 87.1276 68.1552 87.1178 67.904L90.9809 68.0022Z" fill="black"/>
<rect x="57.9873" y="75.5107" width="11.4742" height="11.2101" transform="rotate(1.4557 57.9873 75.5107)" fill="#96F8FF"/>
<path d="M67.9585 60.9502L66.708 70.2598" stroke="black" stroke-width="3.85507"/>
<path d="M79.7041 60.9385L78.4536 70.248" stroke="black" stroke-width="3.85507"/>
<path d="M14.998 48.6147L16.2486 57.9243" stroke="black" stroke-width="3.85507"/>
<path d="M25.0054 48.6147L26.2559 57.9243" stroke="black" stroke-width="3.85507"/>
<path d="M50.846 34.0586L52.7281 21.7877L52.7829 19.8183L56.4545 20.3814L60.4316 30.8808L67.566 22.0857L70.8269 22.5858L68.6484 36.7892L65.4599 36.3001L66.8419 27.2902L66.5762 27.2494L65.3118 29.2065L61.4309 34.1987L58.5081 33.7504L56.3018 27.8245L55.658 25.5748L55.4164 25.5377L54.0345 34.5477L50.846 34.0586ZM74.9826 37.7607C74.1774 37.6372 73.5735 37.4374 73.1708 37.1614C72.7681 36.8854 72.4949 36.5715 72.351 36.2198C72.2233 35.8705 72.1624 35.5151 72.1684 35.1534C72.1906 34.7942 72.2239 34.4696 72.2683 34.1798L72.9797 29.5419C73.0167 29.3004 73.0773 29.013 73.1614 28.6798C73.264 28.3329 73.4298 28.004 73.6589 27.693C73.904 27.3844 74.2612 27.1508 74.7306 26.992C75.2161 26.8357 75.8533 26.8181 76.6424 26.9391L81.8358 27.7357C82.8986 27.8987 83.7119 28.1306 84.2756 28.4313C84.8579 28.7184 85.2353 29.1059 85.4077 29.5939C85.5962 30.0843 85.6324 30.7079 85.5163 31.4648L84.968 35.0398L80.7408 34.3914C79.2915 34.1691 78.1128 33.9554 77.2048 33.7502C76.3129 33.5475 75.7151 33.4146 75.4116 33.3515L75.2079 34.6801C75.093 35.3218 75.4301 35.7031 76.2191 35.8241L77.4511 36.0131C78.3206 36.1465 79.1673 36.2681 79.9911 36.3779C80.8334 36.4742 81.6033 36.5593 82.3006 36.6333C83.0005 36.6912 83.5623 36.7361 83.9859 36.7682L84.7113 38.4865C84.6347 38.9857 83.0102 38.992 79.8378 38.5054L74.9826 37.7607ZM75.6969 31.4916L82.3396 32.5104L82.5768 30.9645C82.6262 30.6424 82.6205 30.4108 82.5597 30.2696C82.5151 30.1309 82.3181 30.0183 81.9687 29.9317C81.6194 29.8452 81.018 29.7365 80.1645 29.6056L77.2417 29.1573C76.4687 29.0387 76.0328 29.3015 75.934 29.9456L75.6969 31.4916Z" fill="black"/>
</g>
<defs>
<clipPath id="clip0_359_537">
<rect x="0.0146484" width="103.986" height="102.024" rx="27.4679" fill="white"/>
</clipPath>
</defs>
</svg>
